<svg width="31" height="31" viewBox="0 0 31 31" fill="none" xmlns="http://www.w3.org/2000/svg">
<path d="M9.66675 9.54183C9.66675 9.42683 9.76008 9.3335 9.87508 9.3335H14.1251C14.2401 9.3335 14.3334 9.42683 14.3334 9.54183V10.3335C14.3334 10.3887 14.3115 10.4417 14.2724 10.4808C14.2333 10.5199 14.1803 10.5418 14.1251 10.5418C14.0698 10.5418 14.0168 10.5199 13.9778 10.4808C13.9387 10.4417 13.9167 10.3887 13.9167 10.3335V9.75016H12.2084V14.2502H12.7917C12.847 14.2502 12.9 14.2721 12.9391 14.3112C12.9781 14.3503 13.0001 14.4032 13.0001 14.4585C13.0001 14.5137 12.9781 14.5667 12.9391 14.6058C12.9 14.6449 12.847 14.6668 12.7917 14.6668H11.2084C11.1532 14.6668 11.1002 14.6449 11.0611 14.6058C11.022 14.5667 11.0001 14.5137 11.0001 14.4585C11.0001 14.4032 11.022 14.3503 11.0611 14.3112C11.1002 14.2721 11.1532 14.2502 11.2084 14.2502H11.7917V9.75016H10.0834V10.3335C10.0834 10.3887 10.0615 10.4417 10.0224 10.4808C9.98333 10.5199 9.93033 10.5418 9.87508 10.5418C9.81983 10.5418 9.76684 10.5199 9.72777 10.4808C9.6887 10.4417 9.66675 10.3887 9.66675 10.3335V9.54183Z" fill="#D27C2C"/>
<path d="M25.1682 26.0321L17.0797 17.9437C16.4339 18.494 15.6912 18.9198 14.8516 19.2212C14.012 19.5226 13.1681 19.6733 12.32 19.6733C10.2516 19.6733 8.50092 18.9572 7.06803 17.5252C5.63515 16.0932 4.9187 14.343 4.9187 12.2746C4.9187 10.2062 5.63428 8.45513 7.06545 7.02138C8.49662 5.58763 10.2464 4.86989 12.3148 4.86817C14.3832 4.86644 16.1347 5.58289 17.5693 7.0175C19.0039 8.45211 19.7216 10.2032 19.7225 12.2707C19.7225 13.168 19.5636 14.0364 19.2459 14.876C18.9281 15.7156 18.5105 16.4338 17.993 17.0305L26.0814 25.1176L25.1682 26.0321ZM12.32 18.3803C14.0336 18.3803 15.4807 17.7904 16.6612 16.6107C17.8418 15.431 18.4317 13.9839 18.4308 12.2694C18.43 10.5549 17.8401 9.10828 16.6612 7.92942C15.4824 6.75056 14.0357 6.16069 12.3212 6.15983C10.6068 6.15897 9.15967 6.74883 7.97995 7.92942C6.80023 9.11 6.21037 10.5567 6.21037 12.2694C6.21037 13.9822 6.80023 15.4288 7.97995 16.6094C9.15967 17.79 10.6063 18.3812 12.32 18.3803Z" fill="#D27C2C"/>
</svg>
