<svg width="31" height="31" viewBox="0 0 31 31" fill="none" xmlns="http://www.w3.org/2000/svg">
<path d="M15.4999 29.3856C23.1686 29.3856 29.3853 23.1689 29.3853 15.5002C29.3853 7.83146 23.1686 1.61475 15.4999 1.61475C7.83122 1.61475 1.6145 7.83146 1.6145 15.5002C1.6145 23.1689 7.83122 29.3856 15.4999 29.3856Z" stroke="#D27C2C" stroke-linecap="round" stroke-linejoin="round"/>
<path d="M10.4871 2.54736L11.8013 3.59038L14.5571 4.11997L14.1121 5.56405L12.5479 6.10526L11.1155 8.41605L8.78077 9.86013L5.50769 10.2935L5.43536 11.5929L6.48225 12.7244L6.40992 14.638L3.49786 12.6521L2.65698 10.2128" stroke="#D27C2C" stroke-linecap="round" stroke-linejoin="round"/>
<path d="M26.8207 23.5419L25.376 22.5609L24.4376 20.6544L22.6202 17.4517L22.5602 15.3579L21.1522 14.4596L19.1424 14.3485L15.8325 12.9089L15.3036 9.72755L16.7231 8.2234H19.6358L20.6827 9.55899L24.7741 9.87222L27.6519 8.77624M25.6201 5.99334L24.1121 6.93561L21.7296 6.50226L20.2733 5.80476L18.348 6.3944L16.9517 5.99722L17.8785 3.95122L19.5512 4.03518L21.5694 3.0083M13.1362 29.1846L15.797 27.7547L18.2841 27.5861L20.0647 27.1289L22.1953 27.6675M5.44751 15.624L7.81836 13.1937L8.79293 14.9265L12.0783 15.1551L13.6186 17.4898H15.58L15.0388 19.9324L13.1852 21.6774L13.1613 23.0853L11.2238 24.5539L11.2839 26.9849L9.65963 26.3829L8.84072 24.0605L8.87688 19.2949L6.4098 18.8493L5.44751 16.9602V15.624Z" stroke="#D27C2C" stroke-linecap="round" stroke-linejoin="round"/>
</svg>
