<svg width="31" height="31" viewBox="0 0 31 31" fill="none" xmlns="http://www.w3.org/2000/svg">
<path d="M15.3708 27.125L20.9999 12.9167H22.3212L27.949 27.125H26.554L25.0169 23.1855H18.3029L16.7671 27.125H15.3708ZM5.19244 23.3986L4.27794 22.4854L10.6019 16.1355C9.86483 15.3821 9.13159 14.4547 8.40223 13.3533C7.67287 12.2519 7.13252 11.2453 6.78119 10.3334H8.17619C8.49136 11.0567 8.96798 11.8877 9.60607 12.8263C10.2433 13.7658 10.8796 14.5644 11.5151 15.2223C12.6398 14.0814 13.6382 12.8289 14.5105 11.4649C15.3828 10.1009 15.9624 8.8626 16.2491 7.75005H3.08057V6.45838H10.9791V4.86963H12.2708V6.45838H20.1693V7.75005H17.5924C17.2067 9.10199 16.5492 10.5418 15.6201 12.0694C14.6909 13.597 13.6279 14.9575 12.4309 16.151L15.7053 19.5145L15.208 20.845L11.5164 17.0578L5.19244 23.3986ZM18.7394 22.0178H24.5816L21.6599 14.5119L18.7394 22.0178Z" fill="#D27C2C"/>
</svg>
