<svg width="60" height="60" viewBox="0 0 60 60" fill="none" xmlns="http://www.w3.org/2000/svg">
<path d="M30 56.875C44.8427 56.875 56.875 44.8427 56.875 30C56.875 15.1573 44.8427 3.125 30 3.125C15.1573 3.125 3.125 15.1573 3.125 30C3.125 44.8427 15.1573 56.875 30 56.875Z" stroke="#D27C2C" stroke-width="2" stroke-linecap="round" stroke-linejoin="round"/>
<path d="M38.365 55.54L21.635 4.45996M28.0363 45.7962L20.9663 24.0437L13.625 45.7962M16.0725 38.455H25.5888M34.045 13.9487C34.005 19.6275 33.72 28.47 40.495 35.6087" stroke="#D27C2C" stroke-width="2" stroke-linecap="round" stroke-linejoin="round"/>
<path d="M28.655 17.4951C35.1564 18.0831 41.7094 17.3457 47.9175 15.3276M29.7313 29.1814C32.9638 23.6889 46.7438 19.2989 47.9188 28.2676C48.0812 29.4909 47.9133 30.7353 47.4323 31.8718C46.9514 33.0082 46.175 33.9951 45.1838 34.7301" stroke="#D27C2C" stroke-width="2" stroke-linecap="round" stroke-linejoin="round"/>
<path d="M44.3076 20.0737C44.5188 26.565 36.6638 37.0487 31.6638 35.0875" stroke="#D27C2C" stroke-width="2" stroke-linecap="round" stroke-linejoin="round"/>
</svg>
